<svg viewBox="0 0 1000 190" role="img" aria-label="Conversation timeline" xmlns="http://www.w3.org/2000/svg"><style>.lane{font:12px sans-serif;fill:#0f172a}.axis{stroke:#e2e8f0}.tick,.turn{font:10px sans-serif;fill:#64748b}.lat{font:600 11px sans-serif;fill:#0f172a}.bar{font:11px sans-serif;fill:#fff}</style><rect width="100%" height="100%" fill="#fff"/><text x="8" y="62" class="lane">Person A (English)</text><line x1="150" x2="980" y1="70" y2="70" class="axis"/><text x="8" y="132" class="lane">Person B (Slovak)</text><line x1="150" x2="980" y1="140" y2="140" class="axis"/><rect x="150.0" y="44" width="75.1" height="22" rx="2" fill="#94a3b8"><title>turn 1 speaking: 7.69s</title></rect><rect x="225.1" y="44" width="8.7" height="22" rx="2" fill="#f59e0b"><title>turn 1 speech-to-text: 0.90s</title></rect><rect x="233.8" y="44" width="1.5" height="22" rx="2" fill="#10b981"><title>turn 1 translation: 0.15s</title></rect><rect x="235.3" y="44" width="3.1" height="22" rx="2" fill="#8b5cf6"><title>turn 1 text-to-speech: 0.32s</title></rect><rect x="238.4" y="114" width="44.8" height="22" rx="2" fill="#0ea5e9"><title>turn 1 translated voice heard: 4.59s</title></rect><text x="150.0" y="40" class="turn">#1</text><text x="225.1" y="84" class="lat">1.4s</text><rect x="289.0" y="114" width="76.6" height="22" rx="2" fill="#94a3b8"><title>turn 2 speaking: 7.84s</title></rect><rect x="365.6" y="114" width="29.5" height="22" rx="2" fill="#f59e0b"><title>turn 2 speech-to-text: 3.02s</title></rect><rect x="395.1" y="114" width="1.8" height="22" rx="2" fill="#10b981"><title>turn 2 translation: 0.19s</title></rect><rect x="397.0" y="114" width="2.9" height="22" rx="2" fill="#8b5cf6"><title>turn 2 text-to-speech: 0.29s</title></rect><rect x="399.8" y="44" width="39.8" height="22" rx="2" fill="#0ea5e9"><title>turn 2 translated voice heard: 4.08s</title></rect><text x="289.0" y="110" class="turn">#2</text><text x="365.6" y="154" class="lat">3.5s</text><rect x="445.6" y="44" width="61.3" height="22" rx="2" fill="#94a3b8"><title>turn 3 speaking: 6.28s</title></rect><rect x="506.9" y="44" width="8.9" height="22" rx="2" fill="#f59e0b"><title>turn 3 speech-to-text: 0.91s</title></rect><rect x="515.8" y="44" width="1.5" height="22" rx="2" fill="#10b981"><title>turn 3 translation: 0.14s</title></rect><rect x="517.1" y="44" width="3.1" height="22" rx="2" fill="#8b5cf6"><title>turn 3 text-to-speech: 0.32s</title></rect><rect x="520.2" y="114" width="47.1" height="22" rx="2" fill="#0ea5e9"><title>turn 3 translated voice heard: 4.82s</title></rect><text x="445.6" y="40" class="turn">#3</text><text x="506.9" y="84" class="lat">1.4s</text><rect x="573.1" y="114" width="71.5" height="22" rx="2" fill="#94a3b8"><title>turn 4 speaking: 7.32s</title></rect><rect x="644.6" y="114" width="33.0" height="22" rx="2" fill="#f59e0b"><title>turn 4 speech-to-text: 3.38s</title></rect><rect x="677.6" y="114" width="1.5" height="22" rx="2" fill="#10b981"><title>turn 4 translation: 0.13s</title></rect><rect x="678.9" y="114" width="2.6" height="22" rx="2" fill="#8b5cf6"><title>turn 4 text-to-speech: 0.26s</title></rect><rect x="681.4" y="44" width="36.6" height="22" rx="2" fill="#0ea5e9"><title>turn 4 translated voice heard: 3.75s</title></rect><text x="573.1" y="110" class="turn">#4</text><text x="644.6" y="154" class="lat">3.8s</text><rect x="723.9" y="44" width="64.3" height="22" rx="2" fill="#94a3b8"><title>turn 5 speaking: 6.59s</title></rect><rect x="788.2" y="44" width="8.5" height="22" rx="2" fill="#f59e0b"><title>turn 5 speech-to-text: 0.87s</title></rect><rect x="796.7" y="44" width="1.5" height="22" rx="2" fill="#10b981"><title>turn 5 translation: 0.13s</title></rect><rect x="797.9" y="44" width="2.6" height="22" rx="2" fill="#8b5cf6"><title>turn 5 text-to-speech: 0.27s</title></rect><rect x="800.5" y="114" width="38.1" height="22" rx="2" fill="#0ea5e9"><title>turn 5 translated voice heard: 3.90s</title></rect><text x="723.9" y="40" class="turn">#5</text><text x="788.2" y="84" class="lat">1.3s</text><rect x="844.5" y="114" width="54.8" height="22" rx="2" fill="#94a3b8"><title>turn 6 speaking: 5.61s</title></rect><rect x="899.3" y="114" width="27.7" height="22" rx="2" fill="#f59e0b"><title>turn 6 speech-to-text: 2.83s</title></rect><rect x="926.9" y="114" width="1.5" height="22" rx="2" fill="#10b981"><title>turn 6 translation: 0.13s</title></rect><rect x="928.2" y="114" width="2.9" height="22" rx="2" fill="#8b5cf6"><title>turn 6 text-to-speech: 0.30s</title></rect><rect x="931.1" y="44" width="42.8" height="22" rx="2" fill="#0ea5e9"><title>turn 6 translated voice heard: 4.38s</title></rect><text x="844.5" y="110" class="turn">#6</text><text x="899.3" y="154" class="lat">3.3s</text><text x="150.0" y="184" class="tick">0s</text><text x="198.8" y="184" class="tick">5s</text><text x="247.6" y="184" class="tick">10s</text><text x="296.5" y="184" class="tick">15s</text><text x="345.3" y="184" class="tick">20s</text><text x="394.1" y="184" class="tick">25s</text><text x="442.9" y="184" class="tick">30s</text><text x="491.8" y="184" class="tick">35s</text><text x="540.6" y="184" class="tick">40s</text><text x="589.4" y="184" class="tick">45s</text><text x="638.2" y="184" class="tick">50s</text><text x="687.1" y="184" class="tick">55s</text><text x="735.9" y="184" class="tick">60s</text><text x="784.7" y="184" class="tick">65s</text><text x="833.5" y="184" class="tick">70s</text><text x="882.4" y="184" class="tick">75s</text><text x="931.2" y="184" class="tick">80s</text><text x="980.0" y="184" class="tick">85s</text></svg>